<svg xmlns="http://www.w3.org/2000/svg" xmlns:xlink="http://www.w3.org/1999/xlink" xmlns:lucid="lucid" width="940" height="900"><g transform="translate(-180 -120)" lucid:page-tab-id="0_0"><path d="M440 932.9c0-3.32 2.7-6 6-6h508c3.3 0 6 2.68 6 6V994c0 3.3-2.7 6-6 6H446c-3.3 0-6-2.7-6-6z" stroke="#5e5e5e" stroke-width="3" fill="#fff"/><use xlink:href="#a" transform="matrix(1,0,0,1,452,938.8888888888889) translate(5.293836805555543 34.25781249999999)"/><use xlink:href="#b" transform="matrix(1,0,0,1,452,938.8888888888889) translate(173.32118055555554 34.25781249999999)"/><use xlink:href="#c" transform="matrix(1,0,0,1,452,938.8888888888889) translate(341.34852430555554 34.25781249999999)"/><path d="M200 946c0-3.3 2.7-6 6-6h228c3.3 0 6 2.7 6 6v48c0 3.3-2.7 6-6 6H206c-3.3 0-6-2.7-6-6z" stroke="#000" stroke-opacity="0" stroke-width="3" fill="#fff" fill-opacity="0"/><use xlink:href="#d" transform="matrix(1,0,0,1,205,945) translate(26.117283950617306 31.138888888888886)"/><use xlink:href="#e" transform="matrix(1,0,0,1,205,945) translate(89.89506172839506 31.138888888888886)"/><use xlink:href="#f" transform="matrix(1,0,0,1,205,945) translate(131.37654320987656 31.138888888888886)"/><path d="M784.32 834.9c1.76 2.82.5 5.1-2.82 5.1h-163c-3.3 0-4.58-2.28-2.82-5.1l81.14-129.8c1.76-2.82 4.6-2.82 6.36 0z" stroke="#5e5e5e" stroke-width="6" fill="#fff"/><path d="M700 923.4V865.73" stroke="#5e5e5e" stroke-width="4" fill="none"/><path d="M702 925.4h-4v-2.06h4z" fill="#5e5e5e"/><path d="M700 849.47l4.64 14.27h-9.28z" stroke="#5e5e5e" stroke-width="4" fill="#5e5e5e"/><path d="M580 806c0-3.3 2.7-6 6-6h228c3.3 0 6 2.7 6 6v28c0 3.3-2.7 6-6 6H586c-3.3 0-6-2.7-6-6z" stroke="#000" stroke-opacity="0" stroke-width="3" fill="#fff" fill-opacity="0"/><use xlink:href="#g" transform="matrix(1,0,0,1,585,805) translate(65.70987654320987 19.65277777777778)"/><path d="M300 206c0-3.3 2.7-6 6-6h788c3.3 0 6 2.7 6 6v388c0 3.3-2.7 6-6 6H306c-3.3 0-6-2.7-6-6z" stroke="#5e5e5e" stroke-width="3" fill="#fff"/><path d="M700 697.68v-71.32" stroke="#5e5e5e" stroke-width="5" fill="none"/><path d="M702.5 700.58l-.7-.53-4.3.3v-2.74h5z" fill="#5e5e5e"/><path d="M700 609.6l4.64 14.26h-9.28z" stroke="#5e5e5e" stroke-width="5" fill="#5e5e5e"/><path d="M714.94 766.6h-3.36v-1.06c0-1.02-.82-1.83-1.83-1.83h-3.62c-1 0-1.83.82-1.83 1.82v1.1h-15.94c-1.3 0-2.4 1.06-2.4 2.37v.63H683c-.24 0-.46.1-.6.26-.16.18-.2.4-.12.64l.45 2.07h-1.98c-.12 0-.2.03-.3.05-.38.2-.56.62-.38 1l5.98 13.35c.07.3.33.48.67.5h29.87c.4 0 .73-.33.73-.74V769c0-1.32-1.04-2.4-2.4-2.4zm-27.47 2.4c0-.53.4-.94.9-.94H705c.42 0 .76-.33.76-.76v-1.8c0-.2.2-.34.37-.34h3.62c.2 0 .34.14.34.33v1.82c0 .4.33.74.74.74h4.1c.5.03.9.43.9.93v11.12l-2.24-9.92c-.07-.35-.37-.6-.75-.57h-25.38zm-3.55 2.1h28.37l1.9 8.38-2.88-6.45c-.1-.26-.37-.42-.67-.42h-26.4zm3.3 14.9l-5.32-11.92h28.23l5.3 11.92zM683.73 761.43v1.5h1.5v-1.5h.75v1.5h1.48v-1.5h.75v1.5h1.5v-1.5c.42 0 .75-.33.75-.74h1.5v-1.5h-1.5v-.75h1.5v-1.48h-1.5v-.75h1.5v-1.5h-1.5c0-.4-.33-.73-.74-.73v-1.5h-1.5v1.5h-.74v-1.5h-1.48v1.5h-.76v-1.5h-1.5v1.5c-.4 0-.73.32-.73.73h-1.5v1.5h1.5v.74h-1.5v1.48h1.5v.75h-1.5v1.5h1.5c0 .4.32.73.73.73zm.75-5.95h4.48v4.46h-4.48zM696.42 761.43v1.5h1.5v-1.5h.75v1.5h1.48v-1.5h.76v1.5h1.5v-1.5c.4 0 .74-.33.74-.74h1.5v-1.5h-1.5v-.75h1.5v-1.48h-1.5v-.75h1.5v-1.5h-1.5c0-.4-.33-.73-.74-.73v-1.5h-1.5v1.5h-.75v-1.5h-1.48v1.5h-.75v-1.5h-1.5v1.5c-.4 0-.74.32-.74.73h-1.5v1.5h1.5v.74h-1.5v1.48h1.5v.75h-1.5v1.5h1.5c0 .4.34.73.74.73zm.76-5.95h4.47v4.46h-4.47zM717.33 756.22v-1.5h-1.5c0-.4-.33-.73-.73-.73v-1.5h-1.5v1.5h-.75v-1.5h-1.5v1.5h-.74v-1.5h-1.48v1.5c-.4 0-.75.32-.75.73h-1.5v1.5h1.5v.74h-1.5v1.48h1.5v.75h-1.5v1.5h1.5c0 .4.34.73.75.73v1.5h1.5v-1.5h.74v1.5h1.5v-1.5h.74v1.5h1.5v-1.5c.4 0 .74-.33.74-.74h1.5v-1.5h-1.5v-.75h1.5v-1.48h-1.5v-.75zm-3 3.72h-4.46v-4.46h4.47z" stroke="#fff" stroke-opacity="0" stroke-width="3"/><path d="M398.95 304.5h-26.2c-.6 0-1.05-.45-1.05-1.03v-39.12c0-.58.45-1.03 1.05-1.03h16.5c.28 0 .5.08.7.3l9.74 9.8c.22.2.3.44.3.73v29.32c0 .58-.45 1.03-1.05 1.03zm-25.2-2.1h24.16v-27.84l-9.1-9.14h-15.04z" stroke="#fff" stroke-opacity="0"/><path d="M369.8 300.6h-2.93c-.58 0-1.04-.46-1.04-1.04v-39.12c0-.58.46-1.03 1.04-1.03h17.5v2.1H367.9v37h1.9z" stroke="#fff" stroke-opacity="0"/><path d="M362.98 296.68h-1.95c-.56 0-1.03-.45-1.03-1.03v-39.12c0-.58.47-1.03 1.03-1.03h18.48v2.1h-17.43v36.98h.9zM398.95 275.18h-9.72c-.57 0-1.03-.46-1.03-1.04v-9.78h2.07v8.73h8.68zM375.62 272.12h8.75v2.08h-8.75v-2.08zM375.62 278.96h20.42v2.08h-20.42v-2.08zM375.62 285.8h16.53v2.08h-16.53v-2.08z" stroke="#fff" stroke-opacity="0"/><path d="M360.95 256.63h17.1v39.03h-17.1v-39.03z" stroke="#fff" stroke-opacity="0" stroke-width=".22" fill="#fff" fill-opacity="0"/><path d="M366.83 260.6h16v38.82h-16v-38.8z" stroke="#fff" stroke-opacity="0" stroke-width=".21" fill="#fff" fill-opacity="0"/><path d="M398.95 544.5h-26.2c-.6 0-1.05-.45-1.05-1.03v-39.12c0-.58.45-1.03 1.05-1.03h16.5c.28 0 .5.08.7.3l9.74 9.8c.22.2.3.44.3.73v29.32c0 .58-.45 1.03-1.05 1.03zm-25.2-2.1h24.16v-27.84l-9.1-9.14h-15.04z" stroke="#fff" stroke-opacity="0"/><path d="M369.8 540.6h-2.93c-.58 0-1.04-.46-1.04-1.04v-39.12c0-.58.46-1.03 1.04-1.03h17.5v2.1H367.9v37h1.9z" stroke="#fff" stroke-opacity="0"/><path d="M362.98 536.68h-1.95c-.56 0-1.03-.45-1.03-1.03v-39.12c0-.58.47-1.03 1.03-1.03h18.48v2.1h-17.43v36.98h.9zM398.95 515.18h-9.72c-.57 0-1.03-.46-1.03-1.04v-9.78h2.07v8.73h8.68zM375.62 512.12h8.75v2.08h-8.75v-2.08zM375.62 518.96h20.42v2.08h-20.42v-2.08zM375.62 525.8h16.53v2.08h-16.53v-2.08z" stroke="#fff" stroke-opacity="0"/><path d="M360.95 496.63h17.1v39.03h-17.1v-39.03z" stroke="#fff" stroke-opacity="0" stroke-width=".22" fill="#fff" fill-opacity="0"/><path d="M366.83 500.6h16v38.82h-16v-38.8z" stroke="#fff" stroke-opacity="0" stroke-width=".21" fill="#fff" fill-opacity="0"/><path d="M398.95 384.5h-26.2c-.6 0-1.05-.45-1.05-1.03v-39.12c0-.58.45-1.03 1.05-1.03h16.5c.28 0 .5.08.7.3l9.74 9.8c.22.2.3.44.3.73v29.32c0 .58-.45 1.03-1.05 1.03zm-25.2-2.1h24.16v-27.84l-9.1-9.14h-15.04z" stroke="#fff" stroke-opacity="0"/><path d="M369.8 380.6h-2.93c-.58 0-1.04-.46-1.04-1.04v-39.12c0-.58.46-1.03 1.04-1.03h17.5v2.1H367.9v37h1.9z" stroke="#fff" stroke-opacity="0"/><path d="M362.98 376.68h-1.95c-.56 0-1.03-.45-1.03-1.03v-39.12c0-.58.47-1.03 1.03-1.03h18.48v2.1h-17.43v36.98h.9zM398.95 355.18h-9.72c-.57 0-1.03-.46-1.03-1.04v-9.78h2.07v8.73h8.68zM375.62 352.12h8.75v2.08h-8.75v-2.08zM375.62 358.96h20.42v2.08h-20.42v-2.08zM375.62 365.8h16.53v2.08h-16.53v-2.08z" stroke="#fff" stroke-opacity="0"/><path d="M360.95 336.63h17.1v39.03h-17.1v-39.03z" stroke="#fff" stroke-opacity="0" stroke-width=".22" fill="#fff" fill-opacity="0"/><path d="M366.83 340.6h16v38.82h-16v-38.8z" stroke="#fff" stroke-opacity="0" stroke-width=".21" fill="#fff" fill-opacity="0"/><path d="M398.95 464.5h-26.2c-.6 0-1.05-.45-1.05-1.03v-39.12c0-.58.45-1.03 1.05-1.03h16.5c.28 0 .5.08.7.3l9.74 9.8c.22.2.3.44.3.73v29.32c0 .58-.45 1.03-1.05 1.03zm-25.2-2.1h24.16v-27.84l-9.1-9.14h-15.04z" stroke="#fff" stroke-opacity="0"/><path d="M369.8 460.6h-2.93c-.58 0-1.04-.46-1.04-1.04v-39.12c0-.58.46-1.03 1.04-1.03h17.5v2.1H367.9v37h1.9z" stroke="#fff" stroke-opacity="0"/><path d="M362.98 456.68h-1.95c-.56 0-1.03-.45-1.03-1.03v-39.12c0-.58.47-1.03 1.03-1.03h18.48v2.1h-17.43v36.98h.9zM398.95 435.18h-9.72c-.57 0-1.03-.46-1.03-1.04v-9.78h2.07v8.73h8.68zM375.62 432.12h8.75v2.08h-8.75v-2.08zM375.62 438.96h20.42v2.08h-20.42v-2.08zM375.62 445.8h16.53v2.08h-16.53v-2.08z" stroke="#fff" stroke-opacity="0"/><path d="M360.95 416.63h17.1v39.03h-17.1v-39.03z" stroke="#fff" stroke-opacity="0" stroke-width=".22" fill="#fff" fill-opacity="0"/><path d="M366.83 420.6h16v38.82h-16v-38.8z" stroke="#fff" stroke-opacity="0" stroke-width=".21" fill="#fff" fill-opacity="0"/><path d="M498.95 304.5h-26.2c-.6 0-1.05-.45-1.05-1.03v-39.12c0-.58.45-1.03 1.05-1.03h16.5c.28 0 .5.08.7.3l9.74 9.8c.22.2.3.44.3.73v29.32c0 .58-.45 1.03-1.05 1.03zm-25.2-2.1h24.16v-27.84l-9.1-9.14h-15.04z" stroke="#fff" stroke-opacity="0"/><path d="M469.8 300.6h-2.93c-.58 0-1.04-.46-1.04-1.04v-39.12c0-.58.46-1.03 1.04-1.03h17.5v2.1H467.9v37h1.9z" stroke="#fff" stroke-opacity="0"/><path d="M462.98 296.68h-1.95c-.56 0-1.03-.45-1.03-1.03v-39.12c0-.58.47-1.03 1.03-1.03h18.48v2.1h-17.43v36.98h.9zM498.95 275.18h-9.72c-.57 0-1.03-.46-1.03-1.04v-9.78h2.07v8.73h8.68zM475.62 272.12h8.75v2.08h-8.75v-2.08zM475.62 278.96h20.42v2.08h-20.42v-2.08zM475.62 285.8h16.53v2.08h-16.53v-2.08z" stroke="#fff" stroke-opacity="0"/><path d="M460.95 256.63h17.1v39.03h-17.1v-39.03z" stroke="#fff" stroke-opacity="0" stroke-width=".22" fill="#fff" fill-opacity="0"/><path d="M466.83 260.6h16v38.82h-16v-38.8z" stroke="#fff" stroke-opacity="0" stroke-width=".21" fill="#fff" fill-opacity="0"/><path d="M498.95 544.5h-26.2c-.6 0-1.05-.45-1.05-1.03v-39.12c0-.58.45-1.03 1.05-1.03h16.5c.28 0 .5.08.7.3l9.74 9.8c.22.2.3.44.3.73v29.32c0 .58-.45 1.03-1.05 1.03zm-25.2-2.1h24.16v-27.84l-9.1-9.14h-15.04z" stroke="#fff" stroke-opacity="0"/><path d="M469.8 540.6h-2.93c-.58 0-1.04-.46-1.04-1.04v-39.12c0-.58.46-1.03 1.04-1.03h17.5v2.1H467.9v37h1.9z" stroke="#fff" stroke-opacity="0"/><path d="M462.98 536.68h-1.95c-.56 0-1.03-.45-1.03-1.03v-39.12c0-.58.47-1.03 1.03-1.03h18.48v2.1h-17.43v36.98h.9zM498.95 515.18h-9.72c-.57 0-1.03-.46-1.03-1.04v-9.78h2.07v8.73h8.68zM475.62 512.12h8.75v2.08h-8.75v-2.08zM475.62 518.96h20.42v2.08h-20.42v-2.08zM475.62 525.8h16.53v2.08h-16.53v-2.08z" stroke="#fff" stroke-opacity="0"/><path d="M460.95 496.63h17.1v39.03h-17.1v-39.03z" stroke="#fff" stroke-opacity="0" stroke-width=".22" fill="#fff" fill-opacity="0"/><path d="M466.83 500.6h16v38.82h-16v-38.8z" stroke="#fff" stroke-opacity="0" stroke-width=".21" fill="#fff" fill-opacity="0"/><path d="M498.95 384.5h-26.2c-.6 0-1.05-.45-1.05-1.03v-39.12c0-.58.45-1.03 1.05-1.03h16.5c.28 0 .5.08.7.3l9.74 9.8c.22.2.3.44.3.73v29.32c0 .58-.45 1.03-1.05 1.03zm-25.2-2.1h24.16v-27.84l-9.1-9.14h-15.04z" stroke="#fff" stroke-opacity="0"/><path d="M469.8 380.6h-2.93c-.58 0-1.04-.46-1.04-1.04v-39.12c0-.58.46-1.03 1.04-1.03h17.5v2.1H467.9v37h1.9z" stroke="#fff" stroke-opacity="0"/><path d="M462.98 376.68h-1.95c-.56 0-1.03-.45-1.03-1.03v-39.12c0-.58.47-1.03 1.03-1.03h18.48v2.1h-17.43v36.98h.9zM498.95 355.18h-9.72c-.57 0-1.03-.46-1.03-1.04v-9.78h2.07v8.73h8.68zM475.62 352.12h8.75v2.08h-8.75v-2.08zM475.62 358.96h20.42v2.08h-20.42v-2.08zM475.62 365.8h16.53v2.08h-16.53v-2.08z" stroke="#fff" stroke-opacity="0"/><path d="M460.95 336.63h17.1v39.03h-17.1v-39.03z" stroke="#fff" stroke-opacity="0" stroke-width=".22" fill="#fff" fill-opacity="0"/><path d="M466.83 340.6h16v38.82h-16v-38.8z" stroke="#fff" stroke-opacity="0" stroke-width=".21" fill="#fff" fill-opacity="0"/><path d="M498.95 464.5h-26.2c-.6 0-1.05-.45-1.05-1.03v-39.12c0-.58.45-1.03 1.05-1.03h16.5c.28 0 .5.08.7.3l9.74 9.8c.22.2.3.44.3.73v29.32c0 .58-.45 1.03-1.05 1.03zm-25.2-2.1h24.16v-27.84l-9.1-9.14h-15.04z" stroke="#fff" stroke-opacity="0"/><path d="M469.8 460.6h-2.93c-.58 0-1.04-.46-1.04-1.04v-39.12c0-.58.46-1.03 1.04-1.03h17.5v2.1H467.9v37h1.9z" stroke="#fff" stroke-opacity="0"/><path d="M462.98 456.68h-1.95c-.56 0-1.03-.45-1.03-1.03v-39.12c0-.58.47-1.03 1.03-1.03h18.48v2.1h-17.43v36.98h.9zM498.95 435.18h-9.72c-.57 0-1.03-.46-1.03-1.04v-9.78h2.07v8.73h8.68zM475.62 432.12h8.75v2.08h-8.75v-2.08zM475.62 438.96h20.42v2.08h-20.42v-2.08zM475.62 445.8h16.53v2.08h-16.53v-2.08z" stroke="#fff" stroke-opacity="0"/><path d="M460.95 416.63h17.1v39.03h-17.1v-39.03z" stroke="#fff" stroke-opacity="0" stroke-width=".22" fill="#fff" fill-opacity="0"/><path d="M466.83 420.6h16v38.82h-16v-38.8z" stroke="#fff" stroke-opacity="0" stroke-width=".21" fill="#fff" fill-opacity="0"/><path d="M991.1 255.5c15.96 0 28.9 12.94 28.9 28.9v231.2c0 15.96-12.94 28.9-28.9 28.9H588.9c-15.96 0-28.9-12.94-28.9-28.9V284.4c0-15.96 12.94-28.9 28.9-28.9z" stroke="#5e5e5e" stroke-width="3" fill="#e5e5e5"/><path d="M638.95 344.5h-26.2c-.6 0-1.05-.45-1.05-1.03v-39.12c0-.58.45-1.03 1.05-1.03h16.5c.28 0 .5.08.7.3l9.74 9.8c.22.2.3.44.3.73v29.32c0 .58-.45 1.03-1.05 1.03zm-25.2-2.1h24.16v-27.84l-9.1-9.14h-15.04z" stroke="#fff" stroke-opacity="0"/><path d="M609.8 340.6h-2.93c-.58 0-1.04-.46-1.04-1.04v-39.12c0-.58.46-1.03 1.04-1.03h17.5v2.1H607.9v37h1.9z" stroke="#fff" stroke-opacity="0"/><path d="M602.98 336.68h-1.95c-.56 0-1.03-.45-1.03-1.03v-39.12c0-.58.47-1.03 1.03-1.03h18.48v2.1h-17.43v36.98h.9zM638.95 315.18h-9.72c-.57 0-1.03-.46-1.03-1.04v-9.78h2.07v8.73h8.68zM615.62 312.12h8.75v2.08h-8.75v-2.08zM615.62 318.96h20.42v2.08h-20.42v-2.08zM615.62 325.8h16.53v2.08h-16.53v-2.08z" stroke="#fff" stroke-opacity="0"/><path d="M600.95 296.63h17.1v39.03h-17.1v-39.03z" stroke="#fff" stroke-opacity="0" stroke-width=".22" fill="#fff" fill-opacity="0"/><path d="M606.83 300.6h16v38.82h-16v-38.8z" stroke="#fff" stroke-opacity="0" stroke-width=".21" fill="#fff" fill-opacity="0"/><path d="M638.95 424.5h-26.2c-.6 0-1.05-.45-1.05-1.03v-39.12c0-.58.45-1.03 1.05-1.03h16.5c.28 0 .5.08.7.3l9.74 9.8c.22.2.3.44.3.73v29.32c0 .58-.45 1.03-1.05 1.03zm-25.2-2.1h24.16v-27.84l-9.1-9.14h-15.04z" stroke="#fff" stroke-opacity="0"/><path d="M609.8 420.6h-2.93c-.58 0-1.04-.46-1.04-1.04v-39.12c0-.58.46-1.03 1.04-1.03h17.5v2.1H607.9v37h1.9z" stroke="#fff" stroke-opacity="0"/><path d="M602.98 416.68h-1.95c-.56 0-1.03-.45-1.03-1.03v-39.12c0-.58.47-1.03 1.03-1.03h18.48v2.1h-17.43v36.98h.9zM638.95 395.18h-9.72c-.57 0-1.03-.46-1.03-1.04v-9.78h2.07v8.73h8.68zM615.62 392.12h8.75v2.08h-8.75v-2.08zM615.62 398.96h20.42v2.08h-20.42v-2.08zM615.62 405.8h16.53v2.08h-16.53v-2.08z" stroke="#fff" stroke-opacity="0"/><path d="M600.95 376.63h17.1v39.03h-17.1v-39.03z" stroke="#fff" stroke-opacity="0" stroke-width=".22" fill="#fff" fill-opacity="0"/><path d="M606.83 380.6h16v38.82h-16v-38.8z" stroke="#fff" stroke-opacity="0" stroke-width=".21" fill="#fff" fill-opacity="0"/><path d="M638.95 504.5h-26.2c-.6 0-1.05-.45-1.05-1.03v-39.12c0-.58.45-1.03 1.05-1.03h16.5c.28 0 .5.08.7.3l9.74 9.8c.22.2.3.44.3.73v29.32c0 .58-.45 1.03-1.05 1.03zm-25.2-2.1h24.16v-27.84l-9.1-9.14h-15.04z" stroke="#fff" stroke-opacity="0"/><path d="M609.8 500.6h-2.93c-.58 0-1.04-.46-1.04-1.04v-39.12c0-.58.46-1.03 1.04-1.03h17.5v2.1H607.9v37h1.9z" stroke="#fff" stroke-opacity="0"/><path d="M602.98 496.68h-1.95c-.56 0-1.03-.45-1.03-1.03v-39.12c0-.58.47-1.03 1.03-1.03h18.48v2.1h-17.43v36.98h.9zM638.95 475.18h-9.72c-.57 0-1.03-.46-1.03-1.04v-9.78h2.07v8.73h8.68zM615.62 472.12h8.75v2.08h-8.75v-2.08zM615.62 478.96h20.42v2.08h-20.42v-2.08zM615.62 485.8h16.53v2.08h-16.53v-2.08z" stroke="#fff" stroke-opacity="0"/><path d="M600.95 456.63h17.1v39.03h-17.1v-39.03z" stroke="#fff" stroke-opacity="0" stroke-width=".22" fill="#fff" fill-opacity="0"/><path d="M606.83 460.6h16v38.82h-16v-38.8z" stroke="#fff" stroke-opacity="0" stroke-width=".21" fill="#fff" fill-opacity="0"/><path d="M716.3 344.5h-26.22c-.6 0-1.05-.45-1.05-1.03v-39.12c0-.58.45-1.03 1.05-1.03h16.5c.28 0 .5.08.7.3l9.74 9.8c.23.2.3.44.3.73v29.32c0 .58-.44 1.03-1.03 1.03zm-25.2-2.1h24.14v-27.84l-9.1-9.14H691.1z" stroke="#fff" stroke-opacity="0"/><path d="M687.13 340.6h-2.93c-.57 0-1.04-.46-1.04-1.04v-39.12c0-.58.47-1.03 1.04-1.03h17.5v2.1h-16.46v37h1.9z" stroke="#fff" stroke-opacity="0"/><path d="M680.32 336.68h-1.95c-.57 0-1.04-.45-1.04-1.03v-39.12c0-.58.47-1.03 1.04-1.03h18.47v2.1H679.4v36.98h.92zM716.3 315.18h-9.74c-.57 0-1.03-.46-1.03-1.04v-9.78h2.08v8.73h8.7zM692.95 312.12h8.75v2.08h-8.75v-2.08zM692.95 318.96h20.42v2.08h-20.42v-2.08zM692.95 325.8h16.53v2.08h-16.53v-2.08z" stroke="#fff" stroke-opacity="0"/><path d="M678.28 296.63h17.1v39.03h-17.1v-39.03z" stroke="#fff" stroke-opacity="0" stroke-width=".22" fill="#fff" fill-opacity="0"/><path d="M684.16 300.6h16v38.82h-16v-38.8z" stroke="#fff" stroke-opacity="0" stroke-width=".21" fill="#fff" fill-opacity="0"/><path d="M716.3 424.5h-26.22c-.6 0-1.05-.45-1.05-1.03v-39.12c0-.58.45-1.03 1.05-1.03h16.5c.28 0 .5.08.7.3l9.74 9.8c.23.2.3.44.3.73v29.32c0 .58-.44 1.03-1.03 1.03zm-25.2-2.1h24.14v-27.84l-9.1-9.14H691.1z" stroke="#fff" stroke-opacity="0"/><path d="M687.13 420.6h-2.93c-.57 0-1.04-.46-1.04-1.04v-39.12c0-.58.47-1.03 1.04-1.03h17.5v2.1h-16.46v37h1.9z" stroke="#fff" stroke-opacity="0"/><path d="M680.32 416.68h-1.95c-.57 0-1.04-.45-1.04-1.03v-39.12c0-.58.47-1.03 1.04-1.03h18.47v2.1H679.4v36.98h.92zM716.3 395.18h-9.74c-.57 0-1.03-.46-1.03-1.04v-9.78h2.08v8.73h8.7zM692.95 392.12h8.75v2.08h-8.75v-2.08zM692.95 398.96h20.42v2.08h-20.42v-2.08zM692.95 405.8h16.53v2.08h-16.53v-2.08z" stroke="#fff" stroke-opacity="0"/><path d="M678.28 376.63h17.1v39.03h-17.1v-39.03z" stroke="#fff" stroke-opacity="0" stroke-width=".22" fill="#fff" fill-opacity="0"/><path d="M684.16 380.6h16v38.82h-16v-38.8z" stroke="#fff" stroke-opacity="0" stroke-width=".21" fill="#fff" fill-opacity="0"/><path d="M716.3 504.5h-26.22c-.6 0-1.05-.45-1.05-1.03v-39.12c0-.58.45-1.03 1.05-1.03h16.5c.28 0 .5.08.7.3l9.74 9.8c.23.2.3.44.3.73v29.32c0 .58-.44 1.03-1.03 1.03zm-25.2-2.1h24.14v-27.84l-9.1-9.14H691.1z" stroke="#fff" stroke-opacity="0"/><path d="M687.13 500.6h-2.93c-.57 0-1.04-.46-1.04-1.04v-39.12c0-.58.47-1.03 1.04-1.03h17.5v2.1h-16.46v37h1.9z" stroke="#fff" stroke-opacity="0"/><path d="M680.32 496.68h-1.95c-.57 0-1.04-.45-1.04-1.03v-39.12c0-.58.47-1.03 1.04-1.03h18.47v2.1H679.4v36.98h.92zM716.3 475.18h-9.74c-.57 0-1.03-.46-1.03-1.04v-9.78h2.08v8.73h8.7zM692.95 472.12h8.75v2.08h-8.75v-2.08zM692.95 478.96h20.42v2.08h-20.42v-2.08zM692.95 485.8h16.53v2.08h-16.53v-2.08z" stroke="#fff" stroke-opacity="0"/><path d="M678.28 456.63h17.1v39.03h-17.1v-39.03z" stroke="#fff" stroke-opacity="0" stroke-width=".22" fill="#fff" fill-opacity="0"/><path d="M684.16 460.6h16v38.82h-16v-38.8z" stroke="#fff" stroke-opacity="0" stroke-width=".21" fill="#fff" fill-opacity="0"/><path d="M793.62 344.5h-26.2c-.6 0-1.06-.45-1.06-1.03v-39.12c0-.58.46-1.03 1.05-1.03h16.5c.3 0 .52.08.72.3l9.74 9.8c.22.2.3.44.3.73v29.32c0 .58-.45 1.03-1.04 1.03zm-25.2-2.1h24.15v-27.84l-9.1-9.14h-15.04z" stroke="#fff" stroke-opacity="0"/><path d="M764.46 340.6h-2.93c-.57 0-1.03-.46-1.03-1.04v-39.12c0-.58.46-1.03 1.03-1.03h17.5v2.1h-16.46v37h1.9z" stroke="#fff" stroke-opacity="0"/><path d="M757.65 336.68h-1.95c-.57 0-1.03-.45-1.03-1.03v-39.12c0-.58.46-1.03 1.03-1.03h18.47v2.1h-17.44v36.98h.92zM793.62 315.18h-9.72c-.57 0-1.04-.46-1.04-1.04v-9.78h2.08v8.73h8.68zM770.3 312.12h8.74v2.08h-8.75v-2.08zM770.3 318.96h20.4v2.08h-20.4v-2.08zM770.3 325.8h16.52v2.08H770.3v-2.08z" stroke="#fff" stroke-opacity="0"/><path d="M755.62 296.63h17.1v39.03h-17.1v-39.03z" stroke="#fff" stroke-opacity="0" stroke-width=".22" fill="#fff" fill-opacity="0"/><path d="M761.5 300.6h16v38.82h-16v-38.8z" stroke="#fff" stroke-opacity="0" stroke-width=".21" fill="#fff" fill-opacity="0"/><path d="M793.62 424.5h-26.2c-.6 0-1.06-.45-1.06-1.03v-39.12c0-.58.46-1.03 1.05-1.03h16.5c.3 0 .52.08.72.3l9.74 9.8c.22.2.3.44.3.73v29.32c0 .58-.45 1.03-1.04 1.03zm-25.2-2.1h24.15v-27.84l-9.1-9.14h-15.04z" stroke="#fff" stroke-opacity="0"/><path d="M764.46 420.6h-2.93c-.57 0-1.03-.46-1.03-1.04v-39.12c0-.58.46-1.03 1.03-1.03h17.5v2.1h-16.46v37h1.9z" stroke="#fff" stroke-opacity="0"/><path d="M757.65 416.68h-1.95c-.57 0-1.03-.45-1.03-1.03v-39.12c0-.58.46-1.03 1.03-1.03h18.47v2.1h-17.44v36.98h.92zM793.62 395.18h-9.72c-.57 0-1.04-.46-1.04-1.04v-9.78h2.08v8.73h8.68zM770.3 392.12h8.74v2.08h-8.75v-2.08zM770.3 398.96h20.4v2.08h-20.4v-2.08zM770.3 405.8h16.52v2.08H770.3v-2.08z" stroke="#fff" stroke-opacity="0"/><path d="M755.62 376.63h17.1v39.03h-17.1v-39.03z" stroke="#fff" stroke-opacity="0" stroke-width=".22" fill="#fff" fill-opacity="0"/><path d="M761.5 380.6h16v38.82h-16v-38.8z" stroke="#fff" stroke-opacity="0" stroke-width=".21" fill="#fff" fill-opacity="0"/><path d="M793.62 504.5h-26.2c-.6 0-1.06-.45-1.06-1.03v-39.12c0-.58.46-1.03 1.05-1.03h16.5c.3 0 .52.08.72.3l9.74 9.8c.22.2.3.44.3.73v29.32c0 .58-.45 1.03-1.04 1.03zm-25.2-2.1h24.15v-27.84l-9.1-9.14h-15.04z" stroke="#fff" stroke-opacity="0"/><path d="M764.46 500.6h-2.93c-.57 0-1.03-.46-1.03-1.04v-39.12c0-.58.46-1.03 1.03-1.03h17.5v2.1h-16.46v37h1.9z" stroke="#fff" stroke-opacity="0"/><path d="M757.65 496.68h-1.95c-.57 0-1.03-.45-1.03-1.03v-39.12c0-.58.46-1.03 1.03-1.03h18.47v2.1h-17.44v36.98h.92zM793.62 475.18h-9.72c-.57 0-1.04-.46-1.04-1.04v-9.78h2.08v8.73h8.68zM770.3 472.12h8.74v2.08h-8.75v-2.08zM770.3 478.96h20.4v2.08h-20.4v-2.08zM770.3 485.8h16.52v2.08H770.3v-2.08z" stroke="#fff" stroke-opacity="0"/><path d="M755.62 456.63h17.1v39.03h-17.1v-39.03z" stroke="#fff" stroke-opacity="0" stroke-width=".22" fill="#fff" fill-opacity="0"/><path d="M761.5 460.6h16v38.82h-16v-38.8z" stroke="#fff" stroke-opacity="0" stroke-width=".21" fill="#fff" fill-opacity="0"/><path d="M964 295.5c8.84 0 16 7.16 16 16v177c0 8.84-7.16 16-16 16H836c-8.84 0-16-7.16-16-16v-177c0-8.84 7.16-16 16-16z" stroke="#5e5e5e" stroke-width="3" fill="#ccc"/><path d="M878.95 384.5h-26.2c-.6 0-1.05-.45-1.05-1.03v-39.12c0-.58.45-1.03 1.05-1.03h16.5c.28 0 .5.08.7.3l9.74 9.8c.22.2.3.44.3.73v29.32c0 .58-.45 1.03-1.05 1.03zm-25.2-2.1h24.16v-27.84l-9.1-9.14h-15.04z" stroke="#fff" stroke-opacity="0"/><path d="M849.8 380.6h-2.93c-.58 0-1.04-.46-1.04-1.04v-39.12c0-.58.46-1.03 1.04-1.03h17.5v2.1H847.9v37h1.9z" stroke="#fff" stroke-opacity="0"/><path d="M842.98 376.68h-1.95c-.56 0-1.03-.45-1.03-1.03v-39.12c0-.58.47-1.03 1.03-1.03h18.48v2.1h-17.43v36.98h.9zM878.95 355.18h-9.72c-.57 0-1.03-.46-1.03-1.04v-9.78h2.07v8.73h8.68zM855.62 352.12h8.75v2.08h-8.75v-2.08zM855.62 358.96h20.42v2.08h-20.42v-2.08zM855.62 365.8h16.53v2.08h-16.53v-2.08z" stroke="#fff" stroke-opacity="0"/><path d="M840.95 336.63h17.1v39.03h-17.1v-39.03z" stroke="#fff" stroke-opacity="0" stroke-width=".22" fill="#fff" fill-opacity="0"/><path d="M846.83 340.6h16v38.82h-16v-38.8z" stroke="#fff" stroke-opacity="0" stroke-width=".21" fill="#fff" fill-opacity="0"/><path d="M878.95 464.5h-26.2c-.6 0-1.05-.45-1.05-1.03v-39.12c0-.58.45-1.03 1.05-1.03h16.5c.28 0 .5.08.7.3l9.74 9.8c.22.2.3.44.3.73v29.32c0 .58-.45 1.03-1.05 1.03zm-25.2-2.1h24.16v-27.84l-9.1-9.14h-15.04z" stroke="#fff" stroke-opacity="0"/><path d="M849.8 460.6h-2.93c-.58 0-1.04-.46-1.04-1.04v-39.12c0-.58.46-1.03 1.04-1.03h17.5v2.1H847.9v37h1.9z" stroke="#fff" stroke-opacity="0"/><path d="M842.98 456.68h-1.95c-.56 0-1.03-.45-1.03-1.03v-39.12c0-.58.47-1.03 1.03-1.03h18.48v2.1h-17.43v36.98h.9zM878.95 435.18h-9.72c-.57 0-1.03-.46-1.03-1.04v-9.78h2.07v8.73h8.68zM855.62 432.12h8.75v2.08h-8.75v-2.08zM855.62 438.96h20.42v2.08h-20.42v-2.08zM855.62 445.8h16.53v2.08h-16.53v-2.08z" stroke="#fff" stroke-opacity="0"/><path d="M840.95 416.63h17.1v39.03h-17.1v-39.03z" stroke="#fff" stroke-opacity="0" stroke-width=".22" fill="#fff" fill-opacity="0"/><path d="M846.83 420.6h16v38.82h-16v-38.8z" stroke="#fff" stroke-opacity="0" stroke-width=".21" fill="#fff" fill-opacity="0"/><path d="M954.4 384.5h-26.22c-.6 0-1.05-.45-1.05-1.03v-39.12c0-.58.45-1.03 1.05-1.03h16.5c.28 0 .5.08.7.3l9.74 9.8c.23.2.3.44.3.73v29.32c0 .58-.44 1.03-1.03 1.03zm-25.2-2.1h24.14v-27.84l-9.1-9.14H929.2z" stroke="#fff" stroke-opacity="0"/><path d="M925.23 380.6h-2.93c-.57 0-1.04-.46-1.04-1.04v-39.12c0-.58.47-1.03 1.04-1.03h17.5v2.1h-16.46v37h1.9z" stroke="#fff" stroke-opacity="0"/><path d="M918.42 376.68h-1.95c-.57 0-1.04-.45-1.04-1.03v-39.12c0-.58.47-1.03 1.04-1.03h18.47v2.1H917.5v36.98h.92zM954.4 355.18h-9.74c-.57 0-1.03-.46-1.03-1.04v-9.78h2.08v8.73h8.7zM931.05 352.12h8.75v2.08h-8.75v-2.08zM931.05 358.96h20.42v2.08h-20.42v-2.08zM931.05 365.8h16.53v2.08h-16.53v-2.08z" stroke="#fff" stroke-opacity="0"/><path d="M916.38 336.63h17.1v39.03h-17.1v-39.03z" stroke="#fff" stroke-opacity="0" stroke-width=".22" fill="#fff" fill-opacity="0"/><path d="M922.26 340.6h16v38.82h-16v-38.8z" stroke="#fff" stroke-opacity="0" stroke-width=".21" fill="#fff" fill-opacity="0"/><path d="M954.4 464.5h-26.22c-.6 0-1.05-.45-1.05-1.03v-39.12c0-.58.45-1.03 1.05-1.03h16.5c.28 0 .5.08.7.3l9.74 9.8c.23.2.3.44.3.73v29.32c0 .58-.44 1.03-1.03 1.03zm-25.2-2.1h24.14v-27.84l-9.1-9.14H929.2z" stroke="#fff" stroke-opacity="0"/><path d="M925.23 460.6h-2.93c-.57 0-1.04-.46-1.04-1.04v-39.12c0-.58.47-1.03 1.04-1.03h17.5v2.1h-16.46v37h1.9z" stroke="#fff" stroke-opacity="0"/><path d="M918.42 456.68h-1.95c-.57 0-1.04-.45-1.04-1.03v-39.12c0-.58.47-1.03 1.04-1.03h18.47v2.1H917.5v36.98h.92zM954.4 435.18h-9.74c-.57 0-1.03-.46-1.03-1.04v-9.78h2.08v8.73h8.7zM931.05 432.12h8.75v2.08h-8.75v-2.08zM931.05 438.96h20.42v2.08h-20.42v-2.08zM931.05 445.8h16.53v2.08h-16.53v-2.08z" stroke="#fff" stroke-opacity="0"/><path d="M916.38 416.63h17.1v39.03h-17.1v-39.03z" stroke="#fff" stroke-opacity="0" stroke-width=".22" fill="#fff" fill-opacity="0"/><path d="M922.26 420.6h16v38.82h-16v-38.8z" stroke="#fff" stroke-opacity="0" stroke-width=".21" fill="#fff" fill-opacity="0"/><path d="M580 146c0-3.3 2.7-6 6-6h228c3.3 0 6 2.7 6 6v48c0 3.3-2.7 6-6 6H586c-3.3 0-6-2.7-6-6z" stroke="#000" stroke-opacity="0" stroke-width="3" fill="#fff" fill-opacity="0"/><use xlink:href="#h" transform="matrix(1,0,0,1,585,145) translate(38.51851851851852 30.27777777777778)"/><use xlink:href="#i" transform="matrix(1,0,0,1,585,145) translate(129.7530864197531 30.27777777777778)"/><path d="M320 212.5c0-3.32 2.7-6 6-6h208c3.3 0 6 2.68 6 6v37c0 3.3-2.7 6-6 6H326c-3.3 0-6-2.7-6-6z" stroke="#000" stroke-opacity="0" stroke-width="3" fill="#fff" fill-opacity="0"/><use xlink:href="#j" transform="matrix(1,0,0,1,325,211.49310872894333) translate(81.6358024691358 25.27777777777778)"/><path d="M680 205.33c0-3.3 2.7-6 6-6h208c3.3 0 6 2.7 6 6v51.33c0 3.32-2.7 6-6 6H686c-3.3 0-6-2.68-6-6z" stroke="#000" stroke-opacity="0" stroke-width="3" fill="#fff" fill-opacity="0"/><use xlink:href="#k" transform="matrix(1,0,0,1,685,204.3287391526289) translate(60.67901234567901 31.27777777777778)"/><path d="M638.67 268.66c0-3.3 2.68-6 6-6h108c3.3 0 6 2.7 6 6v20.84c0 3.3-2.7 6-6 6h-108c-3.32 0-6-2.7-6-6z" stroke="#000" stroke-opacity="0" stroke-width="3" fill="#fff" fill-opacity="0"/><use xlink:href="#j" transform="matrix(1,0,0,1,643.6666666666667,267.6620724859622) translate(31.635802469135804 17.77777777777778)"/><path d="M840 308.66c0-3.3 2.7-6 6-6h108c3.3 0 6 2.7 6 6v20.84c0 3.3-2.7 6-6 6H846c-3.3 0-6-2.7-6-6z" stroke="#000" stroke-opacity="0" stroke-width="3" fill="#fff" fill-opacity="0"/><g><use xlink:href="#j" transform="matrix(1,0,0,1,845,307.6620724859622) translate(31.635802469135804 17.77777777777778)"/></g><path d="M840 268.66c0-3.3 2.7-6 6-6h108c3.3 0 6 2.7 6 6v20.84c0 3.3-2.7 6-6 6H846c-3.3 0-6-2.7-6-6z" stroke="#000" stroke-opacity="0" stroke-width="3" fill="#fff" fill-opacity="0"/><g><use xlink:href="#k" transform="matrix(1,0,0,1,845,267.6620724859622) translate(10.679012345679013 17.77777777777778)"/></g><defs><path fill="#333" d="M1065-1013c47 164 49 500-1 665C999-130 875 20 611 20c-377 0-484-300-487-695-2-245 41-425 141-551 77-98 191-144 352-144 261 0 386 140 448 357zM741-155c199-92 203-504 159-785-26-168-96-284-283-284-281 0-308 256-311 549-2 181 18 324 80 428 46 77 115 118 227 120 47 0 90-10 128-28zM496-555v-249h235v249H496" id="l"/><path fill="#333" d="M148-1120c216-7 379-89 463-229h166v1204h353V0H157v-145h439v-1021c-79 124-254 184-448 194v-148" id="m"/><g id="a"><use transform="matrix(0.015190972222222219,0,0,0.015190972222222219,0,0)" xlink:href="#l"/><use transform="matrix(0.015190972222222219,0,0,0.015190972222222219,18.669704861111107,0)" xlink:href="#l"/><use transform="matrix(0.015190972222222219,0,0,0.015190972222222219,37.339409722222214,0)" xlink:href="#m"/><use transform="matrix(0.015190972222222219,0,0,0.015190972222222219,56.00911458333332,0)" xlink:href="#l"/><use transform="matrix(0.015190972222222219,0,0,0.015190972222222219,74.67881944444443,0)" xlink:href="#l"/><use transform="matrix(0.015190972222222219,0,0,0.015190972222222219,93.34852430555554,0)" xlink:href="#m"/><use transform="matrix(0.015190972222222219,0,0,0.015190972222222219,112.01822916666666,0)" xlink:href="#l"/><use transform="matrix(0.015190972222222219,0,0,0.015190972222222219,130.68793402777777,0)" xlink:href="#l"/></g><g id="b"><use transform="matrix(0.015190972222222219,0,0,0.015190972222222219,0,0)" xlink:href="#l"/><use transform="matrix(0.015190972222222219,0,0,0.015190972222222219,18.669704861111107,0)" xlink:href="#m"/><use transform="matrix(0.015190972222222219,0,0,0.015190972222222219,37.339409722222214,0)" xlink:href="#l"/><use transform="matrix(0.015190972222222219,0,0,0.015190972222222219,56.00911458333332,0)" xlink:href="#l"/><use transform="matrix(0.015190972222222219,0,0,0.015190972222222219,74.67881944444443,0)" xlink:href="#l"/><use transform="matrix(0.015190972222222219,0,0,0.015190972222222219,93.34852430555554,0)" xlink:href="#l"/><use transform="matrix(0.015190972222222219,0,0,0.015190972222222219,112.01822916666666,0)" xlink:href="#m"/><use transform="matrix(0.015190972222222219,0,0,0.015190972222222219,130.68793402777777,0)" xlink:href="#l"/></g><g id="c"><use transform="matrix(0.015190972222222219,0,0,0.015190972222222219,0,0)" xlink:href="#l"/><use transform="matrix(0.015190972222222219,0,0,0.015190972222222219,18.669704861111107,0)" xlink:href="#l"/><use transform="matrix(0.015190972222222219,0,0,0.015190972222222219,37.339409722222214,0)" xlink:href="#m"/><use transform="matrix(0.015190972222222219,0,0,0.015190972222222219,56.00911458333332,0)" xlink:href="#l"/><use transform="matrix(0.015190972222222219,0,0,0.015190972222222219,74.67881944444443,0)" xlink:href="#l"/><use transform="matrix(0.015190972222222219,0,0,0.015190972222222219,93.34852430555554,0)" xlink:href="#l"/><use transform="matrix(0.015190972222222219,0,0,0.015190972222222219,112.01822916666666,0)" xlink:href="#m"/><use transform="matrix(0.015190972222222219,0,0,0.015190972222222219,130.68793402777777,0)" xlink:href="#l"/></g><path fill="#999" d="M30-248c118-7 216 8 213 122C240-48 200 0 122 0H30v-248zM63-27c89 8 146-16 146-99s-60-101-146-95v194" id="n"/><path fill="#999" d="M141-36C126-15 110 5 73 4 37 3 15-17 15-53c-1-64 63-63 125-63 3-35-9-54-41-54-24 1-41 7-42 31l-33-3c5-37 33-52 76-52 45 0 72 20 72 64v82c-1 20 7 32 28 27v20c-31 9-61-2-59-35zM48-53c0 20 12 33 32 33 41-3 63-29 60-74-43 2-92-5-92 41" id="o"/><path fill="#999" d="M59-47c-2 24 18 29 38 22v24C64 9 27 4 27-40v-127H5v-23h24l9-43h21v43h35v23H59v120" id="p"/><path fill="#999" d="M24-231v-30h32v30H24zM24 0v-190h32V0H24" id="q"/><g id="d"><use transform="matrix(0.08641975308641973,0,0,0.08641975308641973,0,0)" xlink:href="#n"/><use transform="matrix(0.08641975308641973,0,0,0.08641975308641973,22.38271604938271,0)" xlink:href="#o"/><use transform="matrix(0.08641975308641973,0,0,0.08641975308641973,39.66666666666666,0)" xlink:href="#p"/><use transform="matrix(0.08641975308641973,0,0,0.08641975308641973,48.30864197530863,0)" xlink:href="#q"/></g><path fill="#999" d="M135-143c-3-34-86-38-87 0 15 53 115 12 119 90S17 21 10-45l28-5c4 36 97 45 98 0-10-56-113-15-118-90-4-57 82-63 122-42 12 7 21 19 24 35" id="r"/><path fill="#999" d="M84 4C-5 8 30-112 23-190h32v120c0 31 7 50 39 49 72-2 45-101 50-169h31l1 190h-30c-1-10 1-25-2-33-11 22-28 36-60 37" id="s"/><g id="e"><use transform="matrix(0.08641975308641973,0,0,0.08641975308641973,0,0)" xlink:href="#r"/><use transform="matrix(0.08641975308641973,0,0,0.08641975308641973,15.555555555555552,0)" xlink:href="#s"/></g><path fill="#999" d="M85-194c31 0 48 13 60 33l-1-100h32l1 261h-30c-2-10 0-23-3-31C134-8 116 4 85 4 32 4 16-35 15-94c0-66 23-100 70-100zm9 24c-40 0-46 34-46 75 0 40 6 74 45 74 42 0 51-32 51-76 0-42-9-74-50-73" id="t"/><path fill="#999" d="M96-169c-40 0-48 33-48 73s9 75 48 75c24 0 41-14 43-38l32 2c-6 37-31 61-74 61-59 0-76-41-82-99-10-93 101-131 147-64 4 7 5 14 7 22l-32 3c-4-21-16-35-41-35" id="u"/><path fill="#999" d="M100-194c62-1 85 37 85 99 1 63-27 99-86 99S16-35 15-95c0-66 28-99 85-99zM99-20c44 1 53-31 53-75 0-43-8-75-51-75s-53 32-53 75 10 74 51 75" id="v"/><g id="f"><use transform="matrix(0.08641975308641973,0,0,0.08641975308641973,0,0)" xlink:href="#t"/><use transform="matrix(0.08641975308641973,0,0,0.08641975308641973,17.283950617283946,0)" xlink:href="#q"/><use transform="matrix(0.08641975308641973,0,0,0.08641975308641973,24.111111111111107,0)" xlink:href="#r"/><use transform="matrix(0.08641975308641973,0,0,0.08641975308641973,39.66666666666666,0)" xlink:href="#u"/><use transform="matrix(0.08641975308641973,0,0,0.08641975308641973,55.22222222222221,0)" xlink:href="#v"/></g><path fill="#333" d="M101-234c-31-9-42 10-38 44h38v23H63V0H32v-167H5v-23h27c-7-52 17-82 69-68v24" id="w"/><path fill="#333" d="M24-231v-30h32v30H24zM24 0v-190h32V0H24" id="x"/><path fill="#333" d="M24 0v-261h32V0H24" id="y"/><path fill="#333" d="M100-194c63 0 86 42 84 106H49c0 40 14 67 53 68 26 1 43-12 49-29l28 8c-11 28-37 45-77 45C44 4 14-33 15-96c1-61 26-98 85-98zm52 81c6-60-76-77-97-28-3 7-6 17-6 28h103" id="z"/><path fill="#333" d="M135-143c-3-34-86-38-87 0 15 53 115 12 119 90S17 21 10-45l28-5c4 36 97 45 98 0-10-56-113-15-118-90-4-57 82-63 122-42 12 7 21 19 24 35" id="A"/><path fill="#333" d="M179-190L93 31C79 59 56 82 12 73V49c39 6 53-20 64-50L1-190h34L92-34l54-156h33" id="B"/><path fill="#333" d="M59-47c-2 24 18 29 38 22v24C64 9 27 4 27-40v-127H5v-23h24l9-43h21v43h35v23H59v120" id="C"/><path fill="#333" d="M210-169c-67 3-38 105-44 169h-31v-121c0-29-5-50-35-48C34-165 62-65 56 0H25l-1-190h30c1 10-1 24 2 32 10-44 99-50 107 0 11-21 27-35 58-36 85-2 47 119 55 194h-31v-121c0-29-5-49-35-48" id="D"/><g id="g"><use transform="matrix(0.06172839506172839,0,0,0.06172839506172839,0,0)" xlink:href="#w"/><use transform="matrix(0.06172839506172839,0,0,0.06172839506172839,6.172839506172839,0)" xlink:href="#x"/><use transform="matrix(0.06172839506172839,0,0,0.06172839506172839,11.049382716049383,0)" xlink:href="#y"/><use transform="matrix(0.06172839506172839,0,0,0.06172839506172839,15.925925925925926,0)" xlink:href="#z"/><use transform="matrix(0.06172839506172839,0,0,0.06172839506172839,28.271604938271604,0)" xlink:href="#A"/><use transform="matrix(0.06172839506172839,0,0,0.06172839506172839,39.382716049382715,0)" xlink:href="#B"/><use transform="matrix(0.06172839506172839,0,0,0.06172839506172839,50.49382716049382,0)" xlink:href="#A"/><use transform="matrix(0.06172839506172839,0,0,0.06172839506172839,61.60493827160494,0)" xlink:href="#C"/><use transform="matrix(0.06172839506172839,0,0,0.06172839506172839,67.77777777777777,0)" xlink:href="#z"/><use transform="matrix(0.06172839506172839,0,0,0.06172839506172839,80.12345679012346,0)" xlink:href="#D"/></g><path fill="#999" d="M185-189c-5-48-123-54-124 2 14 75 158 14 163 119 3 78-121 87-175 55-17-10-28-26-33-46l33-7c5 56 141 63 141-1 0-78-155-14-162-118-5-82 145-84 179-34 5 7 8 16 11 25" id="E"/><path fill="#999" d="M114-163C36-179 61-72 57 0H25l-1-190h30c1 12-1 29 2 39 6-27 23-49 58-41v29" id="F"/><g id="h"><use transform="matrix(0.06172839506172839,0,0,0.06172839506172839,0,0)" xlink:href="#E"/><use transform="matrix(0.06172839506172839,0,0,0.06172839506172839,14.814814814814813,0)" xlink:href="#p"/><use transform="matrix(0.06172839506172839,0,0,0.06172839506172839,20.98765432098765,0)" xlink:href="#F"/><use transform="matrix(0.06172839506172839,0,0,0.06172839506172839,28.33333333333333,0)" xlink:href="#s"/><use transform="matrix(0.06172839506172839,0,0,0.06172839506172839,40.679012345679006,0)" xlink:href="#p"/><use transform="matrix(0.06172839506172839,0,0,0.06172839506172839,46.85185185185185,0)" xlink:href="#p"/><use transform="matrix(0.06172839506172839,0,0,0.06172839506172839,53.02469135802469,0)" xlink:href="#s"/><use transform="matrix(0.06172839506172839,0,0,0.06172839506172839,65.37037037037037,0)" xlink:href="#F"/><use transform="matrix(0.06172839506172839,0,0,0.06172839506172839,72.71604938271605,0)" xlink:href="#o"/></g><path fill="#999" d="M100-194c63 0 86 42 84 106H49c0 40 14 67 53 68 26 1 43-12 49-29l28 8c-11 28-37 45-77 45C44 4 14-33 15-96c1-61 26-98 85-98zm52 81c6-60-76-77-97-28-3 7-6 17-6 28h103" id="G"/><path fill="#999" d="M117-194c89-4 53 116 60 194h-32v-121c0-31-8-49-39-48C34-167 62-67 57 0H25l-1-190h30c1 10-1 24 2 32 11-22 29-35 61-36" id="H"/><g id="i"><use transform="matrix(0.06172839506172839,0,0,0.06172839506172839,0,0)" xlink:href="#s"/><use transform="matrix(0.06172839506172839,0,0,0.06172839506172839,12.345679012345679,0)" xlink:href="#p"/><use transform="matrix(0.06172839506172839,0,0,0.06172839506172839,18.51851851851852,0)" xlink:href="#G"/><use transform="matrix(0.06172839506172839,0,0,0.06172839506172839,30.864197530864196,0)" xlink:href="#H"/><use transform="matrix(0.06172839506172839,0,0,0.06172839506172839,43.20987654320987,0)" xlink:href="#p"/><use transform="matrix(0.06172839506172839,0,0,0.06172839506172839,49.382716049382715,0)" xlink:href="#G"/></g><path fill="#333" d="M63-220v92h138v28H63V0H30v-248h175v28H63" id="I"/><g id="j"><use transform="matrix(0.06172839506172839,0,0,0.06172839506172839,0,0)" xlink:href="#I"/><use transform="matrix(0.06172839506172839,0,0,0.06172839506172839,13.518518518518517,0)" xlink:href="#x"/><use transform="matrix(0.06172839506172839,0,0,0.06172839506172839,18.39506172839506,0)" xlink:href="#y"/><use transform="matrix(0.06172839506172839,0,0,0.06172839506172839,23.2716049382716,0)" xlink:href="#z"/><use transform="matrix(0.06172839506172839,0,0,0.06172839506172839,35.61728395061728,0)" xlink:href="#A"/></g><path fill="#333" d="M30-248c118-7 216 8 213 122C240-48 200 0 122 0H30v-248zM63-27c89 8 146-16 146-99s-60-101-146-95v194" id="J"/><path fill="#333" d="M114-163C36-179 61-72 57 0H25l-1-190h30c1 12-1 29 2 39 6-27 23-49 58-41v29" id="K"/><path fill="#333" d="M96-169c-40 0-48 33-48 73s9 75 48 75c24 0 41-14 43-38l32 2c-6 37-31 61-74 61-59 0-76-41-82-99-10-93 101-131 147-64 4 7 5 14 7 22l-32 3c-4-21-16-35-41-35" id="L"/><path fill="#333" d="M100-194c62-1 85 37 85 99 1 63-27 99-86 99S16-35 15-95c0-66 28-99 85-99zM99-20c44 1 53-31 53-75 0-43-8-75-51-75s-53 32-53 75 10 74 51 75" id="M"/><g id="k"><use transform="matrix(0.06172839506172839,0,0,0.06172839506172839,0,0)" xlink:href="#J"/><use transform="matrix(0.06172839506172839,0,0,0.06172839506172839,15.987654320987653,0)" xlink:href="#x"/><use transform="matrix(0.06172839506172839,0,0,0.06172839506172839,20.864197530864196,0)" xlink:href="#K"/><use transform="matrix(0.06172839506172839,0,0,0.06172839506172839,28.209876543209873,0)" xlink:href="#z"/><use transform="matrix(0.06172839506172839,0,0,0.06172839506172839,40.55555555555555,0)" xlink:href="#L"/><use transform="matrix(0.06172839506172839,0,0,0.06172839506172839,51.66666666666666,0)" xlink:href="#C"/><use transform="matrix(0.06172839506172839,0,0,0.06172839506172839,57.8395061728395,0)" xlink:href="#M"/><use transform="matrix(0.06172839506172839,0,0,0.06172839506172839,70.18518518518518,0)" xlink:href="#K"/><use transform="matrix(0.06172839506172839,0,0,0.06172839506172839,77.53086419753086,0)" xlink:href="#B"/></g></defs></g></svg>