<svg xmlns="http://www.w3.org/2000/svg" xmlns:xlink="http://www.w3.org/1999/xlink" xmlns:lucid="lucid" width="1120" height="452.42"><g transform="translate(-260 -269)" lucid:page-tab-id="0_0"><path d="M680 400c0 44.18-35.82 80-80 80s-80-35.82-80-80 35.82-80 80-80 80 35.82 80 80z" stroke="#5e5e5e" stroke-width="3" fill="#ffdba9"/><use xlink:href="#a" transform="matrix(1,0,0,1,525,325) translate(32.83333333333334 83.56249999999999)"/><path d="M280 627.42c0-3.32 2.7-6 6-6h148c3.3 0 6 2.68 6 6v68c0 3.3-2.7 6-6 6H286c-3.3 0-6-2.7-6-6z" stroke="#5e5e5e" stroke-width="3" fill="#c7e8ac"/><use xlink:href="#b" transform="matrix(1,0,0,1,292,633.4173228346456) translate(19.882716049382715 31.77777777777778)"/><use xlink:href="#c" transform="matrix(1,0,0,1,292,633.4173228346456) translate(67.96913580246914 31.77777777777778)"/><use xlink:href="#d" transform="matrix(1,0,0,1,292,633.4173228346456) translate(103.7716049382716 31.77777777777778)"/><path d="M500 627.42c0-3.32 2.7-6 6-6h148c3.3 0 6 2.68 6 6v68c0 3.3-2.7 6-6 6H506c-3.3 0-6-2.7-6-6z" stroke="#5e5e5e" stroke-width="3" fill="#c7e8ac"/><use xlink:href="#b" transform="matrix(1,0,0,1,512,633.4173228346456) translate(14.327160493827165 31.77777777777778)"/><use xlink:href="#e" transform="matrix(1,0,0,1,512,633.4173228346456) translate(62.41358024691359 31.77777777777778)"/><use xlink:href="#f" transform="matrix(1,0,0,1,512,633.4173228346456) translate(98.21604938271605 31.77777777777778)"/><path d="M682.5 400H760" stroke="#5e5e5e" stroke-width="2" fill="none"/><path d="M682.53 401h-1.06l.03-.98V399h1.03z" fill="#5e5e5e"/><path d="M775.26 400L761 404.64v-9.28z" stroke="#5e5e5e" stroke-width="2" fill="#5e5e5e"/><path d="M780 316c0-3.3 2.7-6 6-6h568c3.3 0 6 2.7 6 6v168c0 3.3-2.7 6-6 6H786c-3.3 0-6-2.7-6-6z" stroke="#5e5e5e" stroke-width="3" fill="#f9d2de"/><use xlink:href="#g" transform="matrix(1,0,0,1,792,322) translate(262.01234567901236 17.77777777777778)"/><use xlink:href="#h" transform="matrix(1,0,0,1,792,322) translate(278 44.44444444444444)"/><use xlink:href="#i" transform="matrix(1,0,0,1,792,322) translate(278 71.11111111111111)"/><path d="M800 356c0-3.3 2.7-6 6-6h88c3.3 0 6 2.7 6 6v88c0 3.3-2.7 6-6 6h-88c-3.3 0-6-2.7-6-6z" stroke="#5e5e5e" stroke-width="3" fill="#ffbbb1"/><use xlink:href="#j" transform="matrix(1,0,0,1,805,355) translate(8.580246913580247 48.71527777777778)"/><path d="M777.5 439.9H706c-3.3 0-6 2.7-6 6V504c0 3.3-2.7 6-6 6H366c-3.3 0-6 2.7-6 6v85.42" stroke="#5e5e5e" stroke-width="2" fill="none"/><path d="M778.5 440.9h-1.03v-2h1.03z" fill="#5e5e5e"/><path d="M360 616.68l-4.64-14.26h9.28z" stroke="#5e5e5e" stroke-width="2" fill="#5e5e5e"/><path d="M390.67 618.92v-77.2c0-3.33 2.68-6 6-6H714c3.3 0 6-2.7 6-6V479.5c0-3.3 2.7-6 6-6h120.5c1.93 0 3.5-1.57 3.5-3.5" stroke="#5e5e5e" stroke-width="2" fill="none"/><path d="M391.67 619.92h-2v-1.03h2z" fill="#5e5e5e"/><path d="M850 454.74l4.64 14.26h-9.28z" stroke="#5e5e5e" stroke-width="2" fill="#5e5e5e"/><path d="M930 356c0-3.3 2.7-6 6-6h88c3.3 0 6 2.7 6 6v88c0 3.3-2.7 6-6 6h-88c-3.3 0-6-2.7-6-6z" stroke="#5e5e5e" stroke-width="3" fill="#99d5ca"/><use xlink:href="#k" transform="matrix(1,0,0,1,935,355) translate(6.111111111111107 48.71527777777778)"/><path d="M902.5 400h7.5" stroke="#5e5e5e" stroke-width="2" fill="none"/><path d="M902.53 401h-1.03v-2h1.03z" fill="#5e5e5e"/><path d="M925.26 400L911 404.64v-9.28z" stroke="#5e5e5e" stroke-width="2" fill="#5e5e5e"/><path d="M1060 356c0-3.3 2.7-6 6-6h228c3.3 0 6 2.7 6 6v88c0 3.3-2.7 6-6 6h-228c-3.3 0-6-2.7-6-6z" stroke="#5e5e5e" stroke-width="3" fill="#fff"/><use xlink:href="#l" transform="matrix(1,0,0,1,1065,355) translate(0 37.46527777777778)"/><use xlink:href="#m" transform="matrix(1,0,0,1,1065,355) translate(0 64.13194444444446)"/><path d="M1032.5 400h7.5" stroke="#5e5e5e" stroke-width="2" fill="none"/><path d="M1032.53 401h-1.03v-2h1.03z" fill="#5e5e5e"/><path d="M1055.26 400l-14.26 4.64v-9.28z" stroke="#5e5e5e" stroke-width="2" fill="#5e5e5e"/><path d="M1120 376c0-3.3 2.7-6 6-6h148c3.3 0 6 2.7 6 6v48c0 3.3-2.7 6-6 6h-148c-3.3 0-6-2.7-6-6z" stroke="#5e5e5e" stroke-width="3" fill="#c7e8ac"/><use xlink:href="#n" transform="matrix(1,0,0,1,1125,375) translate(32.43827160493827 30.27777777777778)"/><use xlink:href="#o" transform="matrix(1,0,0,1,1125,375) translate(75.64814814814815 30.27777777777778)"/><use xlink:href="#p" transform="matrix(1,0,0,1,1125,375) translate(105.21604938271605 30.27777777777778)"/><path d="M1200 367.5V286c0-3.3-2.7-6-6-6H856c-3.3 0-6 2.7-6 6v44" stroke="#5e5e5e" stroke-width="2" fill="none"/><path d="M1201 368.5h-2v-1.03h2z" fill="#5e5e5e"/><path d="M850 345.26L845.36 331h9.28z" stroke="#5e5e5e" stroke-width="2" fill="#5e5e5e"/><path d="M1302.5 400h33c3.3 0 6 2.7 6 6v108c0 3.3-2.7 6-6 6H906c-3.3 0-6 2.7-6 6v58c0 3.3-2.7 6-6 6H620.67c-3.32 0-6 2.7-6 6v5.42" stroke="#5e5e5e" stroke-width="2" fill="none"/><path d="M1302.53 401h-1.03v-2h1.03z" fill="#5e5e5e"/><path d="M614.67 616.68l-4.64-14.26h9.27z" stroke="#5e5e5e" stroke-width="2" fill="#5e5e5e"/><path d="M580 618.92V576c0-3.3 2.7-6 6-6h285.33c3.32 0 6-2.7 6-6v-94" stroke="#5e5e5e" stroke-width="2" fill="none"/><path d="M581 619.92h-2v-1.03h2z" fill="#5e5e5e"/><path d="M877.33 454.74l4.64 14.26h-9.27z" stroke="#5e5e5e" stroke-width="2" fill="#5e5e5e"/><defs><path fill="#333" d="M185-189c-5-48-123-54-124 2 14 75 158 14 163 119 3 78-121 87-175 55-17-10-28-26-33-46l33-7c5 56 141 63 141-1 0-78-155-14-162-118-5-82 145-84 179-34 5 7 8 16 11 25" id="q"/><path fill="#333" d="M59-47c-2 24 18 29 38 22v24C64 9 27 4 27-40v-127H5v-23h24l9-43h21v43h35v23H59v120" id="r"/><path fill="#333" d="M141-36C126-15 110 5 73 4 37 3 15-17 15-53c-1-64 63-63 125-63 3-35-9-54-41-54-24 1-41 7-42 31l-33-3c5-37 33-52 76-52 45 0 72 20 72 64v82c-1 20 7 32 28 27v20c-31 9-61-2-59-35zM48-53c0 20 12 33 32 33 41-3 63-29 60-74-43 2-92-5-92 41" id="s"/><path fill="#333" d="M114-163C36-179 61-72 57 0H25l-1-190h30c1 12-1 29 2 39 6-27 23-49 58-41v29" id="t"/><g id="a"><use transform="matrix(0.11111111111111108,0,0,0.11111111111111108,0,0)" xlink:href="#q"/><use transform="matrix(0.11111111111111108,0,0,0.11111111111111108,26.666666666666657,0)" xlink:href="#r"/><use transform="matrix(0.11111111111111108,0,0,0.11111111111111108,37.777777777777764,0)" xlink:href="#s"/><use transform="matrix(0.11111111111111108,0,0,0.11111111111111108,59.99999999999998,0)" xlink:href="#t"/><use transform="matrix(0.11111111111111108,0,0,0.11111111111111108,73.2222222222222,0)" xlink:href="#r"/></g><path fill="#333" d="M210-169c-67 3-38 105-44 169h-31v-121c0-29-5-50-35-48C34-165 62-65 56 0H25l-1-190h30c1 10-1 24 2 32 10-44 99-50 107 0 11-21 27-35 58-36 85-2 47 119 55 194h-31v-121c0-29-5-49-35-48" id="u"/><path fill="#333" d="M100-194c62-1 85 37 85 99 1 63-27 99-86 99S16-35 15-95c0-66 28-99 85-99zM99-20c44 1 53-31 53-75 0-43-8-75-51-75s-53 32-53 75 10 74 51 75" id="v"/><path fill="#333" d="M108 0H70L1-190h34L89-25l56-165h34" id="w"/><g id="b"><use transform="matrix(0.06172839506172839,0,0,0.06172839506172839,0,0)" xlink:href="#u"/><use transform="matrix(0.06172839506172839,0,0,0.06172839506172839,18.456790123456788,0)" xlink:href="#v"/><use transform="matrix(0.06172839506172839,0,0,0.06172839506172839,30.80246913580247,0)" xlink:href="#w"/></g><path fill="#333" d="M141 0L90-78 38 0H4l68-98-65-92h35l48 74 47-74h35l-64 92 68 98h-35" id="x"/><path fill="#333" d="M68-38c1 34 0 65-14 84H32c9-13 17-26 17-46H33v-38h35" id="y"/><g id="c"><use transform="matrix(0.06172839506172839,0,0,0.06172839506172839,0,0)" xlink:href="#s"/><use transform="matrix(0.06172839506172839,0,0,0.06172839506172839,12.345679012345679,0)" xlink:href="#x"/><use transform="matrix(0.06172839506172839,0,0,0.06172839506172839,23.45679012345679,0)" xlink:href="#y"/></g><path fill="#333" d="M54-142c48-35 137-8 131 61C196 18 31 33 14-55l32-4c7 23 22 37 52 37 35-1 51-22 54-58 4-55-73-65-99-34H22l8-134h141v27H59" id="z"/><use transform="matrix(0.06172839506172839,0,0,0.06172839506172839,0,0)" xlink:href="#z" id="d"/><path fill="#333" d="M85-194c31 0 48 13 60 33l-1-100h32l1 261h-30c-2-10 0-23-3-31C134-8 116 4 85 4 32 4 16-35 15-94c0-66 23-100 70-100zm9 24c-40 0-46 34-46 75 0 40 6 74 45 74 42 0 51-32 51-76 0-42-9-74-50-73" id="A"/><g id="e"><use transform="matrix(0.06172839506172839,0,0,0.06172839506172839,0,0)" xlink:href="#A"/><use transform="matrix(0.06172839506172839,0,0,0.06172839506172839,12.345679012345679,0)" xlink:href="#x"/><use transform="matrix(0.06172839506172839,0,0,0.06172839506172839,23.45679012345679,0)" xlink:href="#y"/></g><g id="f"><use transform="matrix(0.06172839506172839,0,0,0.06172839506172839,0,0)" xlink:href="#s"/><use transform="matrix(0.06172839506172839,0,0,0.06172839506172839,12.345679012345679,0)" xlink:href="#x"/></g><path fill="#333" d="M212-179c-10-28-35-45-73-45-59 0-87 40-87 99 0 60 29 101 89 101 43 0 62-24 78-52l27 14C228-24 195 4 139 4 59 4 22-46 18-125c-6-104 99-153 187-111 19 9 31 26 39 46" id="B"/><path fill="#333" d="M232-93c-1 65-40 97-104 97C67 4 28-28 28-90v-158h33c8 89-33 224 67 224 102 0 64-133 71-224h33v155" id="C"/><g id="g"><use transform="matrix(0.06172839506172839,0,0,0.06172839506172839,0,0)" xlink:href="#B"/><use transform="matrix(0.06172839506172839,0,0,0.06172839506172839,15.987654320987653,0)" xlink:href="#C"/></g><path fill="#333" d="M100-194c63 0 86 42 84 106H49c0 40 14 67 53 68 26 1 43-12 49-29l28 8c-11 28-37 45-77 45C44 4 14-33 15-96c1-61 26-98 85-98zm52 81c6-60-76-77-97-28-3 7-6 17-6 28h103" id="D"/><path fill="#333" d="M96-169c-40 0-48 33-48 73s9 75 48 75c24 0 41-14 43-38l32 2c-6 37-31 61-74 61-59 0-76-41-82-99-10-93 101-131 147-64 4 7 5 14 7 22l-32 3c-4-21-16-35-41-35" id="E"/><g id="j"><use transform="matrix(0.06172839506172839,0,0,0.06172839506172839,0,0)" xlink:href="#A"/><use transform="matrix(0.06172839506172839,0,0,0.06172839506172839,12.345679012345679,0)" xlink:href="#D"/><use transform="matrix(0.06172839506172839,0,0,0.06172839506172839,24.691358024691358,0)" xlink:href="#E"/><use transform="matrix(0.06172839506172839,0,0,0.06172839506172839,35.80246913580247,0)" xlink:href="#v"/><use transform="matrix(0.06172839506172839,0,0,0.06172839506172839,48.148148148148145,0)" xlink:href="#A"/><use transform="matrix(0.06172839506172839,0,0,0.06172839506172839,60.49382716049382,0)" xlink:href="#D"/></g><path fill="#333" d="M84 4C-5 8 30-112 23-190h32v120c0 31 7 50 39 49 72-2 45-101 50-169h31l1 190h-30c-1-10 1-25-2-33-11 22-28 36-60 37" id="F"/><g id="k"><use transform="matrix(0.06172839506172839,0,0,0.06172839506172839,0,0)" xlink:href="#D"/><use transform="matrix(0.06172839506172839,0,0,0.06172839506172839,12.345679012345679,0)" xlink:href="#x"/><use transform="matrix(0.06172839506172839,0,0,0.06172839506172839,23.45679012345679,0)" xlink:href="#D"/><use transform="matrix(0.06172839506172839,0,0,0.06172839506172839,35.80246913580247,0)" xlink:href="#E"/><use transform="matrix(0.06172839506172839,0,0,0.06172839506172839,46.91358024691358,0)" xlink:href="#F"/><use transform="matrix(0.06172839506172839,0,0,0.06172839506172839,59.25925925925926,0)" xlink:href="#r"/><use transform="matrix(0.06172839506172839,0,0,0.06172839506172839,65.4320987654321,0)" xlink:href="#D"/></g><path fill="#333" d="M117-194c89-4 53 116 60 194h-32v-121c0-31-8-49-39-48C34-167 62-67 57 0H25l-1-190h30c1 10-1 24 2 32 11-22 29-35 61-36" id="G"/><g id="l"><use transform="matrix(0.06172839506172839,0,0,0.06172839506172839,0,0)" xlink:href="#G"/><use transform="matrix(0.06172839506172839,0,0,0.06172839506172839,12.345679012345679,0)" xlink:href="#D"/><use transform="matrix(0.06172839506172839,0,0,0.06172839506172839,24.691358024691358,0)" xlink:href="#x"/><use transform="matrix(0.06172839506172839,0,0,0.06172839506172839,35.80246913580247,0)" xlink:href="#r"/></g><path fill="#333" d="M24-231v-30h32v30H24zM24 0v-190h32V0H24" id="H"/><path fill="#333" d="M135-143c-3-34-86-38-87 0 15 53 115 12 119 90S17 21 10-45l28-5c4 36 97 45 98 0-10-56-113-15-118-90-4-57 82-63 122-42 12 7 21 19 24 35" id="I"/><path fill="#333" d="M33 0v-38h34V0H33" id="J"/><g id="m"><use transform="matrix(0.06172839506172839,0,0,0.06172839506172839,0,0)" xlink:href="#H"/><use transform="matrix(0.06172839506172839,0,0,0.06172839506172839,4.876543209876543,0)" xlink:href="#G"/><use transform="matrix(0.06172839506172839,0,0,0.06172839506172839,17.22222222222222,0)" xlink:href="#I"/><use transform="matrix(0.06172839506172839,0,0,0.06172839506172839,28.333333333333332,0)" xlink:href="#r"/><use transform="matrix(0.06172839506172839,0,0,0.06172839506172839,34.50617283950617,0)" xlink:href="#t"/><use transform="matrix(0.06172839506172839,0,0,0.06172839506172839,40.61728395061728,0)" xlink:href="#J"/></g><g id="n"><use transform="matrix(0.06172839506172839,0,0,0.06172839506172839,0,0)" xlink:href="#s"/><use transform="matrix(0.06172839506172839,0,0,0.06172839506172839,12.345679012345679,0)" xlink:href="#A"/><use transform="matrix(0.06172839506172839,0,0,0.06172839506172839,24.691358024691358,0)" xlink:href="#A"/></g><path fill="#333" d="M115-194c55 1 70 41 70 98S169 2 115 4C84 4 66-9 55-30l1 105H24l-1-265h31l2 30c10-21 28-34 59-34zm-8 174c40 0 45-34 45-75s-6-73-45-74c-42 0-51 32-51 76 0 43 10 73 51 73" id="K"/><g id="o"><use transform="matrix(0.06172839506172839,0,0,0.06172839506172839,0,0)" xlink:href="#H"/><use transform="matrix(0.06172839506172839,0,0,0.06172839506172839,4.876543209876543,0)" xlink:href="#K"/><use transform="matrix(0.06172839506172839,0,0,0.06172839506172839,17.22222222222222,0)" xlink:href="#y"/></g><path fill="#333" d="M27 0v-27h64v-190l-56 39v-29l58-41h29v221h61V0H27" id="L"/><use transform="matrix(0.06172839506172839,0,0,0.06172839506172839,0,0)" xlink:href="#L" id="p"/></defs></g></svg>